<svg width="21" height="27" viewBox="0 0 21 27" fill="none" xmlns="http://www.w3.org/2000/svg">
<path d="M17.5767 14.3758C17.5893 13.3993 17.8487 12.4419 18.3307 11.5926C18.8127 10.7434 19.5017 10.0298 20.3336 9.51836C19.8052 8.7636 19.108 8.14246 18.2974 7.70428C17.4869 7.26609 16.5854 7.02294 15.6645 6.99413C13.6999 6.78791 11.7954 8.16966 10.7943 8.16966C9.77387 8.16966 8.23256 7.0146 6.5728 7.04874C5.49923 7.08343 4.45295 7.39562 3.5359 7.95489C2.61886 8.51416 1.86232 9.30145 1.34001 10.24C-0.92249 14.1573 0.765134 19.9143 2.93246 23.0808C4.01682 24.6313 5.28412 26.3632 6.94238 26.3018C8.56508 26.2345 9.17113 25.2671 11.1299 25.2671C13.0704 25.2671 13.639 26.3018 15.3309 26.2628C17.0722 26.2345 18.1692 24.7054 19.2155 23.1402C19.9947 22.0354 20.5942 20.8144 20.9919 19.5223C19.9803 19.0945 19.117 18.3783 18.5097 17.4631C17.9024 16.5479 17.5779 15.4742 17.5767 14.3758Z" fill="#282739"/>
<path d="M14.3801 4.91175C15.3295 3.77204 15.7972 2.30713 15.684 0.828125C14.2335 0.980467 12.8937 1.67369 11.9315 2.76967C11.461 3.30509 11.1007 3.92798 10.8711 4.60273C10.6415 5.27749 10.5472 5.99087 10.5935 6.70211C11.319 6.70958 12.0367 6.55233 12.6926 6.24221C13.3485 5.93209 13.9255 5.47718 14.3801 4.91175Z" fill="#282739"/>
</svg>
