<svg width="26" height="29" viewBox="0 0 26 29" fill="none" xmlns="http://www.w3.org/2000/svg">
<path d="M0.601232 28.2632L0.518059 28.1836C0.192312 27.8389 0 27.3037 0 26.6107V26.7738V2.0171C0 2.01487 0 2.01319 0 2.0114C0 2.01352 0 2.01531 0 2.01755V2.1811C0 1.43065 0.224216 0.865353 0.599887 0.526397L14.4691 14.3952L0.601232 28.2632ZM0 2.01005C0 1.94837 0.00167902 1.88849 0.00481335 1.82949C0.00167902 1.88804 0 1.94837 0 2.01005ZM0.00481335 1.82681C0.00481335 1.82602 0.00481231 1.82513 0.00514813 1.82423C0.00481231 1.82513 0.00481335 1.82602 0.00481335 1.82681ZM0.00514813 1.81897C0.00514813 1.81852 0.00514813 1.81808 0.00514813 1.81763C0.00514813 1.81808 0.00514813 1.81852 0.00514813 1.81897Z" fill="url(#paint0_linear_716_19150)"/>
<path d="M19.0911 19.1841L19.1965 19.1242L24.6737 16.0121C25.1959 15.7153 25.5439 15.3554 25.7175 14.9746C25.5443 15.3554 25.1962 15.7157 24.6737 16.0126L19.1965 19.1246L19.0911 19.1841V19.1841ZM19.0924 19.0201L14.4688 14.3956L19.092 9.77192L24.6737 12.943C25.3825 13.3457 25.7804 13.8648 25.8469 14.3952C25.8469 14.3956 25.8469 14.3965 25.8469 14.3973C25.7804 14.9264 25.3825 15.446 24.6737 15.8486L19.0924 19.0201" fill="url(#paint1_linear_716_19150)"/>
<path d="M1.58821 28.7915C1.20079 28.7915 0.862728 28.6656 0.599109 28.4277L0.599558 28.4272C0.863177 28.6651 1.20168 28.7915 1.58911 28.7915C1.62269 28.7915 1.65683 28.7906 1.69142 28.7889C1.65639 28.7906 1.62179 28.7915 1.58821 28.7915V28.7915ZM1.58866 28.6275C1.20124 28.628 0.863177 28.5016 0.599558 28.2637V28.2634L14.4674 14.3954L19.0911 19.0199L2.84273 28.252C2.39318 28.5068 1.96724 28.6275 1.58866 28.6275V28.6275ZM0.595639 28.4247C0.571125 28.4024 0.547057 28.3788 0.523438 28.3543L0.595639 28.4247Z" fill="url(#paint2_linear_716_19150)"/>
<path d="M14.4707 14.3955L0.601562 0.526666C0.865182 0.289241 1.20279 0.163308 1.58977 0.163308C1.96936 0.163308 2.39563 0.284428 2.84608 0.539764L19.094 9.77181L14.4707 14.3955V14.3955ZM19.1985 9.66737L2.84608 0.376328C2.39563 0.120881 1.96936 -0.000236793 1.58977 -0.000236793C1.58798 -0.000236793 1.58675 -0.000236793 1.58496 -0.000236793C1.5872 -0.000236793 1.58888 -0.000236793 1.59156 -0.000236793C1.97026 -0.000236793 2.39608 0.120433 2.84608 0.375881L19.1985 9.66737V9.66737Z" fill="url(#paint3_linear_716_19150)"/>
<path d="M1.69457 28.7891C2.04651 28.7689 2.43617 28.6478 2.84587 28.4156L19.0929 19.184L2.84587 28.4156C2.43651 28.6482 2.04651 28.7689 1.69457 28.7891V28.7891ZM0.602255 28.4278L0.598786 28.4248C0.600017 28.4257 0.601359 28.4269 0.602255 28.4278ZM0.526584 28.3544L0.519531 28.3475V28.347C0.522218 28.3496 0.524345 28.3522 0.526584 28.3544Z" fill="white"/>
<path d="M19.0898 19.1841L19.1953 19.1242L19.0898 19.1841Z" fill="url(#paint4_linear_716_19150)"/>
<path d="M1.59226 28.7915C1.20483 28.7915 0.866324 28.6651 0.602704 28.4272L0.602255 28.4277C0.601359 28.4268 0.600017 28.4256 0.598786 28.4247L0.526584 28.3543C0.524345 28.352 0.522218 28.3495 0.519531 28.3469L0.602704 28.2637C0.866324 28.5016 1.20438 28.628 1.59181 28.6275C1.97039 28.6275 2.39632 28.5068 2.84587 28.252L19.0942 19.0199L19.1983 19.124L19.0929 19.1839L2.84587 28.4155C2.43617 28.6477 2.04651 28.7688 1.69457 28.7889C1.65998 28.7906 1.62584 28.7915 1.59226 28.7915" fill="url(#paint5_linear_716_19150)"/>
<path d="M0.518059 28.3477C0.192312 28.003 0 27.4678 0 26.7748V26.7743C0 27.4678 0.192312 28.0025 0.518059 28.3472V28.3477" fill="white"/>
<path d="M0.51806 28.3472C0.192313 28.0025 0 27.4678 0 26.7743V26.6112C0 27.3042 0.192313 27.8394 0.51806 28.1841L0.601233 28.2637L0.51806 28.3472" fill="url(#paint6_linear_716_19150)"/>
<path d="M19.1979 19.124L19.0938 19.0199L24.675 15.8484C25.3838 15.4458 25.7817 14.9263 25.8482 14.3971C25.8482 14.5913 25.8049 14.7854 25.7188 14.9744C25.5452 15.3552 25.1972 15.7151 24.675 16.012L19.1979 19.124Z" fill="url(#paint7_linear_716_19150)"/>
<path d="M25.8461 14.3955V14.3951C25.8457 13.8095 25.4543 13.2241 24.6729 12.7798L19.1958 9.66771H19.1953L19.1958 9.66737L24.6729 12.7793C25.4552 13.2236 25.847 13.8099 25.8461 14.3955Z" fill="#282739"/>
<path d="M25.8487 14.395C25.7822 13.8646 25.3842 13.3456 24.6754 12.9428L19.0938 9.77177L19.1979 9.66767H19.1983L24.6754 12.7797C25.4569 13.224 25.8482 13.8095 25.8487 14.395Z" fill="url(#paint8_linear_716_19150)"/>
<path d="M0 2.01172C0 2.01127 0 2.01082 0 2.01038C0 2.01082 0 2.01127 0 2.01172ZM0.00481335 1.82982C0.00481335 1.82892 0.00481335 1.82803 0.00481335 1.82713C0.00481335 1.82803 0.00481335 1.82892 0.00481335 1.82982ZM0.00514814 1.82455C0.00514814 1.82276 0.00514814 1.82109 0.00514814 1.81929C0.00514814 1.82109 0.00514814 1.82276 0.00514814 1.82455ZM0.00514814 1.81795C0.0699616 0.66799 0.695261 0.00373558 1.57981 -0.000182324C1.19631 0.00205648 0.862275 0.127989 0.600783 0.363623V0.363176L0.597648 0.366309C0.570111 0.391159 0.543917 0.417466 0.518059 0.444555C0.224215 0.755413 0.0388422 1.22109 0.00514814 1.81795Z" fill="#282739"/>
<path d="M0 2.18115V2.01761C0 2.01537 0 2.01358 0 2.01145C0 2.011 0 2.01056 0 2.01011C0 1.94843 0.00167903 1.88809 0.00481336 1.82955C0.00481336 1.82865 0.00481336 1.82776 0.00481336 1.82686C0.00481336 1.82608 0.00481233 1.82518 0.00514815 1.82429C0.00514815 1.8225 0.00514815 1.82082 0.00514815 1.81903C0.00514815 1.81858 0.00514815 1.81813 0.00514815 1.81768C0.0388423 1.22082 0.224216 0.755144 0.51806 0.444285L0.599889 0.526451C0.224216 0.865406 0 1.4307 0 2.18115V2.18115ZM0.59765 0.366038L0.600784 0.362906C0.599889 0.364249 0.598545 0.365143 0.59765 0.366038Z" fill="url(#paint9_linear_716_19150)"/>
<path d="M19.0938 9.77197L2.84587 0.53992C2.39543 0.284585 1.96916 0.163464 1.58957 0.163464C1.20259 0.163464 0.864979 0.289398 0.60136 0.526823L0.519531 0.444658C0.545389 0.417568 0.571583 0.391262 0.599121 0.366411C0.600016 0.365515 0.601359 0.364621 0.602255 0.363726C0.863747 0.128091 1.19778 0.0021586 1.58129 -8.0206e-05C1.58218 -8.0206e-05 1.58341 -8.0206e-05 1.58476 -8.0206e-05C1.58655 -8.0206e-05 1.58778 -8.0206e-05 1.58957 -8.0206e-05C1.96916 -8.0206e-05 2.39543 0.121037 2.84587 0.376485L19.1983 9.66753L19.1979 9.66787L19.0938 9.77197Z" fill="url(#paint10_linear_716_19150)"/>
<defs>
<linearGradient id="paint0_linear_716_19150" x1="13.2393" y1="1.75595" x2="-5.54708" y2="20.5423" gradientUnits="userSpaceOnUse">
<stop stop-color="#00A0FF"/>
<stop offset="0.00657445" stop-color="#00A1FF"/>
<stop offset="0.2601" stop-color="#00BEFF"/>
<stop offset="0.5122" stop-color="#00D2FF"/>
<stop offset="0.7604" stop-color="#00DFFF"/>
<stop offset="1" stop-color="#00E3FF"/>
</linearGradient>
<linearGradient id="paint1_linear_716_19150" x1="26.7105" y1="14.3963" x2="-0.375657" y2="14.3963" gradientUnits="userSpaceOnUse">
<stop stop-color="#FFE000"/>
<stop offset="0.4087" stop-color="#FFBD00"/>
<stop offset="0.7754" stop-color="#FFA500"/>
<stop offset="1" stop-color="#FF9C00"/>
</linearGradient>
<linearGradient id="paint2_linear_716_19150" x1="16.6263" y1="16.9648" x2="-8.84945" y2="42.4405" gradientUnits="userSpaceOnUse">
<stop stop-color="#FF3A44"/>
<stop offset="1" stop-color="#C31162"/>
</linearGradient>
<linearGradient id="paint3_linear_716_19150" x1="-2.99318" y1="-7.79621" x2="8.38276" y2="3.57972" gradientUnits="userSpaceOnUse">
<stop stop-color="#32A071"/>
<stop offset="0.0685" stop-color="#2DA771"/>
<stop offset="0.4762" stop-color="#15CF74"/>
<stop offset="0.8009" stop-color="#06E775"/>
<stop offset="1" stop-color="#00F076"/>
</linearGradient>
<linearGradient id="paint4_linear_716_19150" x1="26.7094" y1="14.3966" x2="-0.377264" y2="14.3966" gradientUnits="userSpaceOnUse">
<stop stop-color="#CCB300"/>
<stop offset="0.4087" stop-color="#CC9700"/>
<stop offset="0.7754" stop-color="#CC8400"/>
<stop offset="1" stop-color="#CC7D00"/>
</linearGradient>
<linearGradient id="paint5_linear_716_19150" x1="16.6294" y1="16.9648" x2="-8.8463" y2="42.4405" gradientUnits="userSpaceOnUse">
<stop stop-color="#CC2E36"/>
<stop offset="1" stop-color="#9C0E4E"/>
</linearGradient>
<linearGradient id="paint6_linear_716_19150" x1="13.2393" y1="1.75642" x2="-5.54706" y2="20.5428" gradientUnits="userSpaceOnUse">
<stop stop-color="#008DE0"/>
<stop offset="0.00657445" stop-color="#008DE0"/>
<stop offset="0.2601" stop-color="#00A7E0"/>
<stop offset="0.5122" stop-color="#00B8E0"/>
<stop offset="0.7604" stop-color="#00C4E0"/>
<stop offset="1" stop-color="#00C7E0"/>
</linearGradient>
<linearGradient id="paint7_linear_716_19150" x1="26.7119" y1="14.3961" x2="-0.37437" y2="14.3961" gradientUnits="userSpaceOnUse">
<stop stop-color="#E0C500"/>
<stop offset="0.4087" stop-color="#E0A600"/>
<stop offset="0.7754" stop-color="#E09100"/>
<stop offset="1" stop-color="#E08900"/>
</linearGradient>
<linearGradient id="paint8_linear_716_19150" x1="26.7123" y1="14.3961" x2="-0.373887" y2="14.3961" gradientUnits="userSpaceOnUse">
<stop stop-color="#FFE840"/>
<stop offset="0.4087" stop-color="#FFCE40"/>
<stop offset="0.7754" stop-color="#FFBC40"/>
<stop offset="1" stop-color="#FFB540"/>
</linearGradient>
<linearGradient id="paint9_linear_716_19150" x1="13.2393" y1="1.756" x2="-5.54708" y2="20.5424" gradientUnits="userSpaceOnUse">
<stop stop-color="#40B8FF"/>
<stop offset="0.00657445" stop-color="#40B9FF"/>
<stop offset="0.2601" stop-color="#40CEFF"/>
<stop offset="0.5122" stop-color="#40DDFF"/>
<stop offset="0.7604" stop-color="#40E7FF"/>
<stop offset="1" stop-color="#40EAFF"/>
</linearGradient>
<linearGradient id="paint10_linear_716_19150" x1="-2.99338" y1="-7.79605" x2="8.38255" y2="3.57988" gradientUnits="userSpaceOnUse">
<stop stop-color="#65B895"/>
<stop offset="0.0685" stop-color="#62BD95"/>
<stop offset="0.4762" stop-color="#50DB97"/>
<stop offset="0.8009" stop-color="#44ED98"/>
<stop offset="1" stop-color="#40F498"/>
</linearGradient>
</defs>
</svg>
