<svg width="20" height="18" viewBox="0 0 20 18" fill="none" xmlns="http://www.w3.org/2000/svg">
<g filter="url(#filter0_d_4926_185)">
<path d="M17.9951 3.51484C17.7344 2.90528 17.3586 2.35291 16.8886 1.88864C16.4182 1.42298 15.8637 1.05293 15.2551 0.798611C14.624 0.533848 13.9471 0.398328 13.2637 0.399916C12.305 0.399916 11.3696 0.665058 10.5568 1.16588C10.3623 1.28569 10.1775 1.41727 10.0025 1.56065C9.8275 1.41727 9.64276 1.28569 9.44829 1.16588C8.63542 0.665058 7.70004 0.399916 6.74132 0.399916C6.05096 0.399916 5.382 0.533469 4.74998 0.798611C4.13935 1.05393 3.58901 1.4212 3.11646 1.88864C2.64584 2.35239 2.2699 2.90489 2.00994 3.51484C1.73963 4.14922 1.60156 4.82287 1.60156 5.51617C1.60156 6.17019 1.7338 6.8517 1.99633 7.54499C2.21608 8.12438 2.53111 8.72537 2.93366 9.33225C3.57151 10.2926 4.44855 11.2943 5.53757 12.3097C7.34222 13.9929 9.12937 15.1555 9.20521 15.2027L9.6661 15.5012C9.87029 15.6328 10.1328 15.6328 10.337 15.5012L10.7979 15.2027C10.8737 15.1536 12.6589 13.9929 14.4655 12.3097C15.5545 11.2943 16.4316 10.2926 17.0694 9.33225C17.472 8.72537 17.789 8.12438 18.0068 7.54499C18.2693 6.8517 18.4015 6.17019 18.4015 5.51617C18.4035 4.82287 18.2654 4.14922 17.9951 3.51484ZM10.0025 13.9477C10.0025 13.9477 3.07951 9.46776 3.07951 5.51617C3.07951 3.51484 4.71886 1.89257 6.74132 1.89257C8.16287 1.89257 9.39579 2.69388 10.0025 3.86443C10.6093 2.69388 11.8422 1.89257 13.2637 1.89257C15.2862 1.89257 16.9255 3.51484 16.9255 5.51617C16.9255 9.46776 10.0025 13.9477 10.0025 13.9477Z" fill="#6F73EE"/>
</g>
<defs>
<filter id="filter0_d_4926_185" x="-2.39844" y="0.399902" width="24.8008" height="23.2002" filterUnits="userSpaceOnUse" color-interpolation-filters="sRGB">
<feFlood flood-opacity="0" result="BackgroundImageFix"/>
<feColorMatrix in="SourceAlpha" type="matrix" values="0 0 0 0 0 0 0 0 0 0 0 0 0 0 0 0 0 0 127 0" result="hardAlpha"/>
<feOffset dy="4"/>
<feGaussianBlur stdDeviation="2"/>
<feComposite in2="hardAlpha" operator="out"/>
<feColorMatrix type="matrix" values="0 0 0 0 0 0 0 0 0 0 0 0 0 0 0 0 0 0 0.25 0"/>
<feBlend mode="normal" in2="BackgroundImageFix" result="effect1_dropShadow_4926_185"/>
<feBlend mode="normal" in="SourceGraphic" in2="effect1_dropShadow_4926_185" result="shape"/>
</filter>
</defs>
</svg>
