<svg width="24" height="24" viewBox="0 0 24 24" fill="none" xmlns="http://www.w3.org/2000/svg">
<g filter="url(#filter0_d_4911_1832)">
<path d="M19.9519 14.8499L14.758 9.65596C15.564 8.61396 15.9999 7.33997 15.9999 5.99997C15.9999 4.39598 15.374 2.89199 14.242 1.75799C13.11 0.623997 11.602 0 9.99997 0C8.39798 0 6.88999 0.625997 5.75799 1.75799C4.624 2.88999 4 4.39598 4 5.99997C4 7.60197 4.626 9.10996 5.75799 10.242C6.88999 11.376 8.39598 11.9999 9.99997 11.9999C11.34 11.9999 12.612 11.564 13.654 10.76L18.8479 15.9519C18.8632 15.9672 18.8812 15.9793 18.9012 15.9875C18.9211 15.9958 18.9424 16 18.9639 16C18.9855 16 19.0068 15.9958 19.0267 15.9875C19.0466 15.9793 19.0647 15.9672 19.0799 15.9519L19.9519 15.0819C19.9672 15.0667 19.9793 15.0486 19.9875 15.0287C19.9958 15.0088 20 14.9875 20 14.9659C20 14.9444 19.9958 14.9231 19.9875 14.9032C19.9793 14.8833 19.9672 14.8652 19.9519 14.8499ZM13.168 9.16796C12.32 10.014 11.196 10.48 9.99997 10.48C8.80398 10.48 7.67998 10.014 6.83199 9.16796C5.98599 8.31996 5.51999 7.19597 5.51999 5.99997C5.51999 4.80398 5.98599 3.67798 6.83199 2.83199C7.67998 1.98599 8.80398 1.51999 9.99997 1.51999C11.196 1.51999 12.322 1.98399 13.168 2.83199C14.014 3.67998 14.48 4.80398 14.48 5.99997C14.48 7.19597 14.014 8.32196 13.168 9.16796Z" fill="white"/>
</g>
<defs>
<filter id="filter0_d_4911_1832" x="0" y="0" width="24" height="24" filterUnits="userSpaceOnUse" color-interpolation-filters="sRGB">
<feFlood flood-opacity="0" result="BackgroundImageFix"/>
<feColorMatrix in="SourceAlpha" type="matrix" values="0 0 0 0 0 0 0 0 0 0 0 0 0 0 0 0 0 0 127 0" result="hardAlpha"/>
<feOffset dy="4"/>
<feGaussianBlur stdDeviation="2"/>
<feComposite in2="hardAlpha" operator="out"/>
<feColorMatrix type="matrix" values="0 0 0 0 0 0 0 0 0 0 0 0 0 0 0 0 0 0 0.25 0"/>
<feBlend mode="normal" in2="BackgroundImageFix" result="effect1_dropShadow_4911_1832"/>
<feBlend mode="normal" in="SourceGraphic" in2="effect1_dropShadow_4911_1832" result="shape"/>
</filter>
</defs>
</svg>
