<svg width="25" height="19" viewBox="0 0 25 19" fill="none" xmlns="http://www.w3.org/2000/svg">
<path d="M20.3125 13.6667C17.7281 13.6667 15.625 11.5635 15.625 8.97917C15.625 6.39479 17.7281 4.29167 20.3125 4.29167H22.9167V2.98958C22.9167 1.40937 21.6323 0.125 20.0521 0.125H2.86458C1.28438 0.125 0 1.40937 0 2.98958V16.0104C0 17.5906 1.28438 18.875 2.86458 18.875H20.0521C21.6323 18.875 22.9167 17.5906 22.9167 16.0104V13.6667H20.3125Z" fill="#6F73EE"/>
<path d="M24.2187 5.85419H20.3125C18.5896 5.85419 17.1875 7.25627 17.1875 8.97919C17.1875 10.7021 18.5896 12.1042 20.3125 12.1042H24.2187C24.65 12.1042 25 11.7542 25 11.3229V6.63544C25 6.20419 24.65 5.85419 24.2187 5.85419ZM20.3125 10.0209C19.7375 10.0209 19.2708 9.55419 19.2708 8.97919C19.2708 8.40419 19.7375 7.93752 20.3125 7.93752C20.8875 7.93752 21.3542 8.40419 21.3542 8.97919C21.3542 9.55419 20.8875 10.0209 20.3125 10.0209Z" fill="#6F73EE"/>
</svg>
