<svg width="268" height="24" viewBox="0 0 268 24" fill="none" xmlns="http://www.w3.org/2000/svg">
<rect x="0.243409" y="0.559815" width="33.5905" height="22.8805" rx="2.6775" fill="white" stroke="#EAEBED" stroke-width="0.486818"/>
<path fill-rule="evenodd" clip-rule="evenodd" d="M16.0946 15.659V12.7177H17.6127C18.2347 12.7177 18.7598 12.5093 19.1878 12.0982L19.2905 11.994C20.0724 11.1428 20.021 9.81692 19.1878 9.02948C18.7712 8.6126 18.2005 8.38679 17.6127 8.39837H15.1758V15.659H16.0946ZM16.0947 11.826V9.28998H17.6359C17.9669 9.28998 18.2809 9.41736 18.5149 9.64896C19.0115 10.1353 19.0229 10.9459 18.5434 11.4496C18.3094 11.6986 17.9783 11.8376 17.6359 11.826H16.0947ZM23.5765 11.0792C23.1828 10.7144 22.6463 10.5291 21.9672 10.5291C21.094 10.5291 20.4377 10.8534 20.0039 11.4961L20.8143 12.0114C21.1111 11.5713 21.5163 11.3513 22.0299 11.3513C22.3552 11.3513 22.6691 11.4729 22.9145 11.6929C23.1542 11.9014 23.2912 12.2024 23.2912 12.5209V12.7351C22.9373 12.5383 22.4922 12.434 21.9443 12.434C21.3051 12.434 20.7915 12.5846 20.4091 12.8914C20.0268 13.1983 19.8327 13.6036 19.8327 14.1189C19.8213 14.5879 20.0211 15.0337 20.3749 15.3348C20.7344 15.6591 21.191 15.8212 21.7275 15.8212C22.3609 15.8212 22.8632 15.5375 23.2455 14.97H23.2855V15.6591H24.1644V12.5962C24.1644 11.9535 23.9703 11.4439 23.5765 11.0792ZM21.0827 14.744C20.8944 14.605 20.7802 14.3792 20.7802 14.136C20.7802 13.8639 20.9058 13.6381 21.1512 13.4586C21.4024 13.2791 21.7163 13.1865 22.0873 13.1865C22.601 13.1807 23.0006 13.2965 23.286 13.5281C23.286 13.9218 23.1319 14.2634 22.8294 14.5529C22.5554 14.8308 22.1844 14.9872 21.7962 14.9872C21.5394 14.9929 21.2882 14.9061 21.0827 14.744ZM26.139 17.8419L29.2094 10.6912H28.2106L26.7896 14.2579H26.7725L25.3172 10.6912H24.3185L26.333 15.3406L25.1916 17.8419H26.139Z" fill="#282739"/>
<path d="M12.9201 12.0812C12.9201 11.7975 12.8973 11.5138 12.8516 11.2358H8.97656V12.8397H11.1966C11.1053 13.355 10.8085 13.8182 10.3748 14.1077V15.1499H11.6988C12.475 14.4261 12.9201 13.355 12.9201 12.0812Z" fill="#4285F4"/>
<path d="M8.97821 16.1574C10.0854 16.1574 11.0213 15.7868 11.7005 15.1499L10.3764 14.1077C10.0055 14.3625 9.53179 14.5072 8.97821 14.5072C7.90529 14.5072 6.99787 13.7719 6.67257 12.7876H5.30859V13.8645C6.00485 15.2715 7.4259 16.1574 8.97821 16.1574Z" fill="#34A853"/>
<path d="M6.67232 12.7873C6.50108 12.272 6.50108 11.7104 6.67232 11.1893V10.1182H5.30813C4.72021 11.2935 4.72021 12.6831 5.30813 13.8585L6.67232 12.7873Z" fill="#FBBC04"/>
<path d="M8.97821 9.46973C9.56604 9.45815 10.131 9.68396 10.5534 10.0951L11.729 8.90231C10.9814 8.19594 9.99977 7.80801 8.97821 7.81959C7.4259 7.81959 6.00485 8.71125 5.30859 10.1182L6.67257 11.1951C6.99787 10.2051 7.90529 9.46973 8.97821 9.46973Z" fill="#EA4335"/>
<rect x="39.1887" y="0.559815" width="33.5905" height="22.8805" rx="2.6775" fill="white" stroke="#EAEBED" stroke-width="0.486818"/>
<path fill-rule="evenodd" clip-rule="evenodd" d="M48.2718 8.43958C47.9857 8.7822 47.5281 9.05244 47.0704 9.01383C47.0132 8.55057 47.2373 8.05836 47.4995 7.75434C47.7855 7.40207 48.2861 7.15114 48.6913 7.13184C48.739 7.6144 48.553 8.08731 48.2718 8.43958ZM48.6865 9.10562C48.2833 9.08214 47.9155 9.22836 47.6183 9.34648C47.4271 9.42248 47.2652 9.48685 47.142 9.48685C47.0037 9.48685 46.8351 9.41904 46.6458 9.34291C46.3977 9.24316 46.1141 9.12911 45.8167 9.13458C45.135 9.14423 44.5009 9.53511 44.1529 10.1576C43.4379 11.4026 43.967 13.246 44.6583 14.2594C44.9967 14.7613 45.4019 15.3114 45.9359 15.2921C46.1708 15.2831 46.3397 15.2105 46.5146 15.1354C46.7159 15.049 46.9251 14.9591 47.2516 14.9591C47.5668 14.9591 47.7668 15.0466 47.9588 15.1306C48.1413 15.2105 48.3166 15.2871 48.5769 15.2824C49.1299 15.2728 49.4779 14.7806 49.8163 14.2787C50.1816 13.7401 50.3421 13.2144 50.3665 13.1346L50.3693 13.1254C50.3688 13.1248 50.3642 13.1227 50.3563 13.119C50.2342 13.0624 49.3009 12.6299 49.292 11.4702C49.283 10.4967 50.0322 10.0035 50.1501 9.9259L50.1501 9.9259C50.1573 9.92118 50.1622 9.91799 50.1644 9.91633C49.6876 9.20214 48.944 9.12493 48.6865 9.10562ZM52.5146 15.2293V7.70613H55.3034C56.7431 7.70613 57.749 8.70986 57.749 10.1769C57.749 11.6438 56.724 12.6572 55.2653 12.6572H53.6683V15.2293H52.5146ZM53.6682 8.69046H54.9982C55.9993 8.69046 56.5714 9.23093 56.5714 10.1816C56.5714 11.1322 55.9993 11.6775 54.9935 11.6775H53.6682V8.69046ZM61.558 14.3268C61.2529 14.9155 60.5807 15.2871 59.8561 15.2871C58.7835 15.2871 58.0351 14.6405 58.0351 13.6657C58.0351 12.7006 58.7597 12.1456 60.0992 12.0636L61.5389 11.9767V11.5617C61.5389 10.9489 61.1433 10.6159 60.4377 10.6159C59.8561 10.6159 59.4318 10.9199 59.346 11.3832H58.3068C58.3402 10.4084 59.2459 9.69904 60.4711 9.69904C61.7916 9.69904 62.6497 10.3988 62.6497 11.4845V15.2292H61.5818V14.3268H61.558ZM60.1659 14.3943C59.5509 14.3943 59.16 14.0952 59.16 13.6367C59.16 13.1638 59.5366 12.8888 60.2564 12.8453L61.5388 12.7633V13.1879C61.5388 13.8925 60.9477 14.3943 60.1659 14.3943ZM66.1917 15.5237C65.7293 16.8411 65.2001 17.2754 64.0751 17.2754C63.9893 17.2754 63.7032 17.2657 63.6365 17.2464V16.3441C63.708 16.3537 63.8844 16.3634 63.975 16.3634C64.485 16.3634 64.7711 16.1462 64.9475 15.5816L65.0523 15.2486L63.0978 9.77154H64.3039L65.6625 14.2159H65.6864L67.045 9.77154H68.2177L66.1917 15.5237Z" fill="#282739"/>
<rect x="78.134" y="0.559815" width="33.5905" height="22.8805" rx="2.6775" fill="white" stroke="#EAEBED" stroke-width="0.486818"/>
<path fill-rule="evenodd" clip-rule="evenodd" d="M88.2372 16.1459H86.1728L84.6247 10.24C84.5512 9.96828 84.3952 9.72811 84.1657 9.61491C83.593 9.33044 82.9619 9.10404 82.2734 8.98986V8.76248H85.5991C86.058 8.76248 86.4023 9.10404 86.4597 9.50073L87.2629 13.7609L89.3263 8.76248H91.3333L88.2372 16.1459ZM92.4808 16.1459H90.5312L92.1366 8.76248H94.0863L92.4808 16.1459ZM96.6086 10.808C96.666 10.4103 97.0102 10.183 97.4118 10.183C98.0429 10.1259 98.7304 10.24 99.3041 10.5235L99.6484 8.93385C99.0746 8.70647 98.4435 8.59229 97.8708 8.59229C95.9785 8.59229 94.6015 9.615 94.6015 11.0344C94.6015 12.1142 95.5769 12.6812 96.2654 13.0227C97.0102 13.3633 97.2971 13.5907 97.2397 13.9313C97.2397 14.4421 96.666 14.6695 96.0932 14.6695C95.4048 14.6695 94.7163 14.4992 94.0862 14.2148L93.742 15.8054C94.4304 16.0889 95.1753 16.2031 95.8637 16.2031C97.9855 16.2592 99.3041 15.2375 99.3041 13.7039C99.3041 11.7726 96.6086 11.6594 96.6086 10.808ZM106.128 16.1459L104.579 8.76248H102.917C102.572 8.76248 102.228 8.98986 102.113 9.33044L99.2468 16.1459H101.254L101.654 15.0671H104.121L104.35 16.1459H106.128ZM103.204 10.7509L103.776 13.5336H102.171L103.204 10.7509Z" fill="#172B85"/>
<rect x="117.079" y="0.559815" width="33.5905" height="22.8805" rx="2.6775" fill="white" stroke="#EAEBED" stroke-width="0.486818"/>
<path fill-rule="evenodd" clip-rule="evenodd" d="M134.067 17.2389C132.906 18.24 131.402 18.8443 129.757 18.8443C126.088 18.8443 123.113 15.8352 123.113 12.1233C123.113 8.41144 126.088 5.40234 129.757 5.40234C131.402 5.40234 132.907 6.00678 134.067 7.00802C135.227 6.00691 136.732 5.40256 138.376 5.40256C142.046 5.40256 145.02 8.41166 145.02 12.1236C145.02 15.8355 142.046 18.8446 138.376 18.8446C136.732 18.8446 135.227 18.2401 134.067 17.2389Z" fill="#ED0006"/>
<path fill-rule="evenodd" clip-rule="evenodd" d="M134.066 17.2393C135.495 16.0065 136.401 14.1722 136.401 12.1238C136.401 10.0755 135.495 8.24113 134.066 7.00837C135.227 6.00721 136.731 5.40283 138.376 5.40283C142.045 5.40283 145.02 8.41193 145.02 12.1238C145.02 15.8357 142.045 18.8448 138.376 18.8448C136.731 18.8448 135.227 18.2404 134.066 17.2393Z" fill="#F9A000"/>
<path fill-rule="evenodd" clip-rule="evenodd" d="M134.069 17.2391C135.497 16.0064 136.403 14.172 136.403 12.1237C136.403 10.0754 135.497 8.24106 134.069 7.0083C132.64 8.24106 131.734 10.0754 131.734 12.1237C131.734 14.172 132.64 16.0064 134.069 17.2391Z" fill="#FF5E00"/>
<rect x="156.025" y="0.559815" width="33.5905" height="22.8805" rx="2.6775" fill="white" stroke="#EAEBED" stroke-width="0.486818"/>
<path d="M175.346 12.1233C175.346 15.8352 172.372 18.8443 168.702 18.8443C165.033 18.8443 162.059 15.8352 162.059 12.1233C162.059 8.41144 165.033 5.40234 168.702 5.40234C172.372 5.40234 175.346 8.41144 175.346 12.1233Z" fill="#ED0006"/>
<path d="M183.964 12.1233C183.964 15.8352 180.989 18.8443 177.32 18.8443C173.65 18.8443 170.676 15.8352 170.676 12.1233C170.676 8.41144 173.65 5.40234 177.32 5.40234C180.989 5.40234 183.964 8.41144 183.964 12.1233Z" fill="#0099DF"/>
<path fill-rule="evenodd" clip-rule="evenodd" d="M173.014 17.2391C174.442 16.0064 175.348 14.172 175.348 12.1237C175.348 10.0754 174.442 8.24106 173.014 7.0083C171.585 8.24106 170.68 10.0754 170.68 12.1237C170.68 14.172 171.585 16.0064 173.014 17.2391Z" fill="#6C6BBD"/>
<rect x="194.97" y="0.559815" width="33.5905" height="22.8805" rx="2.6775" fill="white" stroke="#EAEBED" stroke-width="0.486818"/>
<path fill-rule="evenodd" clip-rule="evenodd" d="M207.547 16.0489C207.7 15.9697 207.959 15.8657 208.234 15.8657C208.864 15.8657 209.205 16.2914 209.205 17.0835C209.205 18.0089 208.747 18.4594 208.01 18.4594C207.74 18.4594 207.323 18.3752 207.018 18.2166V14.762L207.547 14.6382V16.0489ZM207.542 18.0336C207.705 18.103 207.883 18.1128 208.01 18.1128C208.386 18.1128 208.671 17.8852 208.671 17.0836C208.671 16.4548 208.437 16.2519 208.096 16.2519C207.893 16.2519 207.746 16.3063 207.542 16.4152V18.0336ZM202.126 15.9298H202.162L202.853 18.3998H203.402L204.226 14.8904H203.631L203.113 17.5089H203.077L202.37 14.8904H201.918L201.257 17.5089H201.221L200.651 14.8904H200.082L200.906 18.3998H201.455L202.126 15.9298ZM206.48 18.2315V17.8554C206.2 18.0187 205.946 18.1127 205.671 18.1127C205.147 18.1127 204.898 17.8503 204.898 17.2564H206.556V17.0734C206.556 16.2667 206.164 15.8657 205.529 15.8657C204.766 15.8657 204.374 16.4102 204.374 17.1624C204.374 17.9446 204.725 18.4594 205.58 18.4594C205.946 18.4594 206.251 18.3604 206.48 18.2315ZM206.073 16.9249H204.909C204.964 16.4301 205.203 16.1974 205.514 16.1974C205.788 16.1974 206.048 16.4051 206.073 16.9249ZM211.544 17.6573H211.518L210.379 14.8904H209.764V18.3998H210.222V15.9151H210.268L211.305 18.3998H211.63L212.668 15.8557H212.714V18.3998H213.263V14.8904H212.632L211.544 17.6573ZM213.822 17.1624C213.822 16.2962 214.31 15.8657 214.981 15.8657C215.653 15.8657 216.141 16.2962 216.141 17.1624C216.141 18.0089 215.678 18.4594 214.981 18.4594C214.285 18.4594 213.822 18.0089 213.822 17.1624ZM215.607 17.1625C215.607 16.4944 215.327 16.2124 214.981 16.2124C214.646 16.2124 214.356 16.4944 214.356 17.1625C214.356 17.8409 214.62 18.1128 214.981 18.1128C215.342 18.1128 215.607 17.8409 215.607 17.1625ZM217.92 15.8657C217.336 15.8657 216.853 16.0983 216.624 16.232V18.4H217.153V16.4399C217.31 16.3509 217.57 16.2616 217.773 16.2616C218.032 16.2616 218.231 16.331 218.231 16.722V18.4H218.759V16.608C218.759 16.0983 218.531 15.8657 217.92 15.8657ZM221.337 17.8554V18.2315C221.109 18.3604 220.804 18.4594 220.437 18.4594C219.583 18.4594 219.232 17.9446 219.232 17.1624C219.232 16.4102 219.624 15.8657 220.387 15.8657C221.022 15.8657 221.414 16.2667 221.414 17.0734V17.2564H219.756C219.756 17.8503 220.005 18.1127 220.529 18.1127C220.804 18.1127 221.058 18.0187 221.337 17.8554ZM219.766 16.9249H220.931C220.905 16.4051 220.646 16.1974 220.371 16.1974C220.061 16.1974 219.822 16.4301 219.766 16.9249ZM223.936 15.9498H223.392L222.812 17.7712H222.782L222.131 15.9498H221.572L222.548 18.4247C222.426 18.7908 222.212 19.0584 221.867 19.0584V19.464C222.451 19.464 222.761 19.1078 223.016 18.4247L223.936 15.9498Z" fill="#0068A3"/>
<path fill-rule="evenodd" clip-rule="evenodd" d="M211.668 4.51562C212.367 4.51562 213.03 4.67425 213.62 4.95586C213.713 4.99867 213.805 5.04576 213.898 5.09776L213.488 5.45518L212.872 4.83479L211.831 5.73802L211.213 5.08157L209.275 6.78193L210.518 8.11472L210.029 8.53272L211.253 9.86752L210.768 10.2846L212.516 12.1792L213.554 11.249L214.452 12.2458C214.273 12.3809 214.079 12.508 213.865 12.6254C213.216 12.9857 212.466 13.1919 211.668 13.1919C209.213 13.1919 207.211 11.2429 207.211 8.8539C207.211 6.46434 209.213 4.51562 211.668 4.51562ZM210.856 8.57949L211.915 7.65052L212.87 8.68234L211.81 9.61096L210.856 8.57949ZM212.669 9.4333L211.609 10.362L212.563 11.3938L213.623 10.4649L212.669 9.4333ZM210.097 6.81784L211.157 5.88913L212.111 6.92069L211.051 7.8494L210.097 6.81784ZM212.837 5.62148L212.042 6.31794L212.757 7.09187L213.552 6.39515L212.837 5.62148ZM213.454 9.50867L214.249 8.81194L214.965 9.58579L214.17 10.2823L213.454 9.50867ZM214.948 10.3746L214.153 11.0714L214.869 11.8448L215.664 11.1483L214.948 10.3746ZM214.473 7.48975L215.003 7.02536L215.48 7.54114L214.951 8.00545L214.473 7.48975ZM214.326 5.49288L213.797 5.95719L214.274 6.47297L214.803 6.00866L214.326 5.49288ZM215.151 9.02223L215.681 8.55784L216.158 9.07353L215.628 9.53793L215.151 9.02223ZM213.569 7.17701L212.774 7.87383L213.49 8.64724L214.285 7.95068L213.569 7.17701Z" fill="#0068A3"/>
<rect x="233.915" y="0.559815" width="33.5905" height="22.8805" rx="2.6775" fill="white" stroke="#EAEBED" stroke-width="0.486818"/>
<path fill-rule="evenodd" clip-rule="evenodd" d="M243.41 11.5788C243.41 15.3487 246.485 18.4232 250.291 18.4232C250.758 18.4232 251.226 18.3823 251.762 18.3353C252.361 18.2829 253.046 18.2229 253.915 18.2036C255.232 18.2036 256.66 18.6794 258.234 20.0702C258.38 20.2167 258.6 20.0336 258.453 19.8506C256.879 17.9108 255.452 17.5448 254.024 17.2154C252.268 16.8127 251.353 15.8611 250.73 14.7631C250.621 14.5435 250.547 14.5801 250.547 14.8729C250.511 15.3121 250.547 15.7147 250.621 16.1173H250.401C247.912 16.1173 245.862 14.0677 245.862 11.5788C245.862 9.0899 247.912 7.04023 250.401 7.04023C252.89 7.04023 254.94 9.0899 254.94 11.5788C254.94 11.7252 254.94 11.9082 254.903 12.0912C254.537 12.018 253.915 12.018 253.439 12.0546C253.256 12.0546 253.256 12.1278 253.402 12.1644C254.866 12.4572 255.891 13.3722 256.147 15.0559C256.147 15.1291 256.184 15.1291 256.221 15.0925C256.806 14.0677 257.172 12.8598 257.172 11.5788C257.172 7.77225 254.098 4.69775 250.291 4.69775C246.485 4.69775 243.41 7.80885 243.41 11.5788ZM255.269 14.3971C255.525 14.507 255.635 14.873 255.635 15.056C255.672 15.3488 255.598 15.4952 255.489 15.4952C255.379 15.4952 255.232 15.3854 255.086 15.1292C254.94 14.873 254.866 14.6168 254.94 14.4704C255.049 14.3972 255.159 14.3605 255.269 14.3971ZM253.768 15.5319C253.915 15.5319 254.098 15.6051 254.281 15.7515C254.574 16.0077 254.683 16.3005 254.537 16.5201C254.464 16.6299 254.281 16.7031 254.134 16.7031C253.951 16.7031 253.768 16.6299 253.658 16.5201C253.366 16.2639 253.292 15.8979 253.475 15.6783C253.512 15.6051 253.622 15.5319 253.768 15.5319Z" fill="#F28A1A"/>
</svg>
